<svg width="15" height="15" viewBox="0 0 15 15" fill="none" xmlns="http://www.w3.org/2000/svg">
<path d="M13.75 7.02084C13.7524 7.95575 13.534 8.87801 13.1125 9.71251C12.6127 10.7125 11.8444 11.5536 10.8936 12.1416C9.9428 12.7296 8.84708 13.0412 7.72916 13.0417C6.79425 13.0441 5.87199 12.8257 5.03749 12.4042L1 13.75L2.34583 9.71251C1.92432 8.87801 1.70589 7.95575 1.70833 7.02084C1.70876 5.90292 2.02043 4.8072 2.60842 3.85641C3.19642 2.90561 4.03751 2.1373 5.03749 1.63752C5.87199 1.21601 6.79425 0.997583 7.72916 1.00002H8.08332C9.55973 1.08147 10.9542 1.70464 11.9998 2.75021C13.0454 3.79578 13.6685 5.19027 13.75 6.66668V7.02084Z" stroke="#FFBE2E" stroke-linecap="round" stroke-linejoin="round"/>
</svg>
