<svg width="22" height="16" viewBox="0 0 22 16" fill="none" xmlns="http://www.w3.org/2000/svg">
<g opacity="0.4">
<path d="M21.3787 7.90138C21.3987 7.93695 21.417 7.96987 21.4336 8C21.417 8.03012 21.3987 8.06305 21.3787 8.09862C21.26 8.30957 21.0816 8.61326 20.8456 8.97874C20.3729 9.71066 19.6722 10.6853 18.7602 11.658C16.9272 13.6132 14.3002 15.5 11 15.5C7.69975 15.5 5.07276 13.6132 3.23977 11.658C2.32783 10.6853 1.62709 9.71066 1.15439 8.97874C0.918356 8.61326 0.739995 8.30957 0.621335 8.09862C0.601326 8.06305 0.583021 8.03013 0.56643 8C0.583021 7.96987 0.601326 7.93695 0.621335 7.90138C0.739995 7.69043 0.918356 7.38674 1.15439 7.02126C1.62709 6.28934 2.32783 5.3147 3.23977 4.34197C5.07276 2.38678 7.69975 0.5 11 0.5C14.3002 0.5 16.9272 2.38678 18.7602 4.34197C19.6722 5.3147 20.3729 6.28934 20.8456 7.02126C21.0816 7.38674 21.26 7.69043 21.3787 7.90138Z" stroke="white" stroke-linecap="round" stroke-linejoin="round"/>
<path d="M13.5 8C13.5 9.38071 12.3807 10.5 11 10.5C9.61929 10.5 8.5 9.38071 8.5 8C8.5 6.61929 9.61929 5.5 11 5.5C12.3807 5.5 13.5 6.61929 13.5 8Z" stroke="white" stroke-linecap="round" stroke-linejoin="round"/>
</g>
</svg>
