<svg width="13" height="15" viewBox="0 0 13 15" fill="none" xmlns="http://www.w3.org/2000/svg">
<mask id="path-1-inside-1" fill="white">
<path d="M13 15V13.3333C13 12.4493 12.6576 11.6014 12.0481 10.9763C11.4386 10.3512 10.612 10 9.75 10H3.25C2.38805 10 1.5614 10.3512 0.951903 10.9763C0.34241 11.6014 0 12.4493 0 13.3333V15"/>
</mask>
<path d="M12 15C12 15.5523 12.4477 16 13 16C13.5523 16 14 15.5523 14 15H12ZM9.75 10V9V10ZM3.25 10V9V10ZM0 13.3333H-1H0ZM-1 15C-1 15.5523 -0.552285 16 0 16C0.552285 16 1 15.5523 1 15H-1ZM14 15V13.3333H12V15H14ZM14 13.3333C14 12.1921 13.5582 11.0927 12.7641 10.2782L11.3321 11.6744C11.757 12.1102 12 12.7064 12 13.3333H14ZM12.7641 10.2782C11.9691 9.46286 10.8855 9 9.75 9V11C10.3384 11 10.9081 11.2395 11.3321 11.6744L12.7641 10.2782ZM9.75 9H3.25V11H9.75V9ZM3.25 9C2.11454 9 1.03087 9.46286 0.235903 10.2782L1.6679 11.6744C2.09192 11.2395 2.66155 11 3.25 11V9ZM0.235903 10.2782C-0.558225 11.0927 -1 12.1921 -1 13.3333H1C1 12.7064 1.24304 12.1102 1.6679 11.6744L0.235903 10.2782ZM-1 13.3333V15H1V13.3333H-1Z" fill="#FFBE2E" mask="url(#path-1-inside-1)"/>
<path d="M9.25 3.33333C9.25 4.91015 8.00693 6.16667 6.5 6.16667C4.99307 6.16667 3.75 4.91015 3.75 3.33333C3.75 1.75652 4.99307 0.5 6.5 0.5C8.00693 0.5 9.25 1.75652 9.25 3.33333Z" stroke="#FFBE2E" stroke-linecap="round" stroke-linejoin="round"/>
</svg>
