<svg width="13" height="23" viewBox="0 0 13 23" fill="none" xmlns="http://www.w3.org/2000/svg">
<path d="M11.9643 0.00478456L8.98229 0C5.63214 0 3.46713 2.22123 3.46713 5.65917V8.26843H0.468887C0.209803 8.26843 0 8.47847 0 8.73756V12.5181C0 12.7772 0.210042 12.987 0.468887 12.987H3.46713V22.5264C3.46713 22.7855 3.67693 22.9953 3.93602 22.9953H7.84787C8.10695 22.9953 8.31676 22.7853 8.31676 22.5264V12.987H11.8224C12.0815 12.987 12.2913 12.7772 12.2913 12.5181L12.2927 8.73756C12.2927 8.61316 12.2432 8.49402 12.1554 8.40599C12.0676 8.31795 11.948 8.26843 11.8236 8.26843H8.31676V6.05653C8.31676 4.9934 8.5701 4.45371 9.95499 4.45371L11.9638 4.45299C12.2226 4.45299 12.4324 4.24295 12.4324 3.9841V0.473671C12.4324 0.215066 12.2229 0.00526301 11.9643 0.00478456Z" fill="#3F3F3F"/>
</svg>
