<svg width="24" height="23" viewBox="0 0 24 23" fill="none" xmlns="http://www.w3.org/2000/svg">
<g clip-path="url(#clip0)">
<path d="M5.93164 11.5C5.93164 10.3605 6.2456 9.29297 6.79104 8.37895V4.50183H2.91392C1.37513 6.50032 0.541016 8.93593 0.541016 11.5C0.541016 14.064 1.37513 16.4997 2.91392 18.4981H6.79104V14.621C6.2456 13.707 5.93164 12.6395 5.93164 11.5Z" fill="#B8B8B8"/>
<path d="M12.041 17.6094L9.3457 20.3047L12.041 23C14.6051 23 17.0407 22.1659 19.0392 20.6271V16.7542H15.1662C14.2442 17.3016 13.1722 17.6094 12.041 17.6094Z" fill="#B8B8B8"/>
<path d="M6.79118 14.6211L2.91406 18.4982C3.21872 18.8939 3.55047 19.2728 3.90944 19.6318C6.0815 21.8038 8.9694 23.0001 12.0412 23.0001V17.6094C9.81195 17.6094 7.85816 16.4091 6.79118 14.6211Z" fill="#626262"/>
<path d="M23.541 11.5C23.541 10.8003 23.4777 10.0994 23.3527 9.41663L23.2516 8.86414H12.041V14.2548H17.4969C16.9671 15.3087 16.1524 16.1685 15.1661 16.7541L19.0391 20.6271C19.4348 20.3225 19.8137 19.9907 20.1727 19.6317C22.3448 17.4596 23.541 14.5717 23.541 11.5Z" fill="#707172"/>
<path d="M16.361 7.18L16.8375 7.65644L20.6492 3.84473L20.1728 3.36829C18.0007 1.19622 15.1128 0 12.041 0L9.3457 2.69531L12.041 5.39062C13.6728 5.39062 15.2071 6.02609 16.361 7.18Z" fill="#686868"/>
<path d="M12.0412 5.39062V0C8.96944 0 6.08155 1.19622 3.90944 3.36824C3.55047 3.72721 3.21872 4.10613 2.91406 4.50185L6.79118 8.37896C7.85821 6.59094 9.812 5.39062 12.0412 5.39062Z" fill="#D7D7D7"/>
</g>
<defs>
<clipPath id="clip0">
<rect width="23" height="23" fill="white" transform="translate(0.541016)"/>
</clipPath>
</defs>
</svg>
