<svg width="30" height="18" viewBox="0 0 30 18" fill="none" xmlns="http://www.w3.org/2000/svg">
<path d="M15.0293 17.9763C19.3258 17.9763 17.7938 15.3422 18.1255 14.5848C18.1205 14.0191 18.1156 13.475 18.1354 13.1443C18.4076 13.2186 19.0499 13.5338 20.3765 14.7825C22.4245 16.7839 22.948 17.9763 24.6025 17.9763H27.6479C28.6132 17.9763 29.1156 17.5892 29.3668 17.2645C29.6093 16.9505 29.8469 16.3992 29.5871 15.5411C28.9077 13.475 24.9453 9.90735 24.699 9.53104C24.7361 9.46153 24.7955 9.36926 24.8265 9.32132H24.824C25.6061 8.32064 28.5909 3.98954 29.0302 2.25663C29.0314 2.25423 29.0327 2.25063 29.0327 2.24704C29.2703 1.45608 29.0525 0.943157 28.8272 0.65314C28.4882 0.219311 27.9486 0 27.2198 0H24.1743C23.1546 0 22.3812 0.497345 21.9901 1.40455C21.3355 3.01643 19.4966 6.33126 18.118 7.50451C18.076 5.8423 18.1044 4.57317 18.1267 3.63002C18.1713 1.79044 18.3148 0 16.3435 0H11.5569C10.3219 0 9.14007 1.30628 10.4196 2.85704C11.5383 4.21604 10.8218 4.97345 11.0631 8.74368C10.1226 7.76697 8.44956 5.12924 7.26652 1.75808C6.93487 0.846085 6.43245 0.00119833 5.01801 0.00119833H1.97255C0.737542 0.00119833 0 0.653139 0 1.7449C0 4.19687 5.60458 17.9763 15.0293 17.9763ZM5.01801 1.79883C5.28654 1.79883 5.31377 1.79883 5.513 2.34651C6.7245 5.80156 9.44202 10.914 11.427 10.914C12.9181 10.914 12.9181 9.43397 12.9181 8.8767L12.9169 4.44015C12.8352 2.97208 12.2833 2.24105 11.9207 1.79763L16.2618 1.80243C16.2643 1.8228 16.2371 6.70996 16.2742 7.894C16.2742 9.57538 17.6527 10.5389 19.8047 8.42969C22.0755 5.94776 23.6459 2.23745 23.709 2.08645C23.8018 1.87074 23.8823 1.79763 24.1743 1.79763H27.2198H27.2321C27.2309 1.80123 27.2309 1.80482 27.2297 1.80842C26.9512 3.06676 24.2028 7.07668 23.2833 8.32184C23.2685 8.34101 23.2548 8.36138 23.2412 8.38176C22.8366 9.02171 22.5074 9.72878 23.2969 10.7235H23.2982C23.3699 10.8074 23.5568 11.0039 23.829 11.2771C24.6755 12.1232 27.5786 15.0162 27.836 16.1667C27.6652 16.1931 27.4796 16.1739 24.6025 16.1799C23.9899 16.1799 23.511 15.2931 21.6832 13.5074C20.0399 11.959 18.9731 11.3263 18.0017 11.3263C16.1158 11.3263 16.2531 12.8087 16.2705 14.6016C16.2767 16.5454 16.2643 15.9306 16.2779 16.0529C16.1678 16.0948 15.8522 16.1787 15.0293 16.1787C7.17742 16.1787 2.06413 4.10939 1.86737 1.80243C1.93543 1.79643 2.87221 1.80003 5.01801 1.79883Z" fill="#3F3F3F"/>
</svg>
