<svg width="20" height="13" viewBox="0 0 20 13" fill="none" xmlns="http://www.w3.org/2000/svg">
<path d="M10.1207 12.4999C13.014 12.4999 11.9824 10.6682 12.2057 10.1416C12.2024 9.74823 12.199 9.3699 12.2124 9.1399C12.3957 9.19157 12.8282 9.41073 13.7215 10.2791C15.1007 11.6707 15.4532 12.4999 16.5673 12.4999H18.6181C19.2681 12.4999 19.6065 12.2307 19.7756 12.0049C19.9389 11.7865 20.0989 11.4032 19.9239 10.8065C19.4665 9.3699 16.7981 6.88909 16.6323 6.62743C16.6573 6.57909 16.6973 6.51493 16.7182 6.4816H16.7165C17.2431 5.78577 19.2531 2.77414 19.549 1.56915C19.5498 1.56748 19.5506 1.56498 19.5506 1.56248C19.7106 1.01249 19.564 0.655826 19.4123 0.454162C19.184 0.152498 18.8206 0 18.3298 0H16.279C15.5923 0 15.0715 0.345829 14.8082 0.976656C14.3673 2.09748 13.129 4.40245 12.2007 5.21828C12.1724 4.06246 12.1915 3.17997 12.2065 2.52414C12.2365 1.24499 12.3332 0 11.0057 0H7.78241C6.95076 0 6.15493 0.908323 7.01659 1.98664C7.76991 2.93163 7.28742 3.45829 7.44992 6.07993C6.81659 5.40077 5.68994 3.56663 4.89328 1.22249C4.66995 0.588327 4.33162 0.000833264 3.37913 0.000833264H1.32832C0.496661 0.000833264 0 0.454162 0 1.21332C0 2.9183 3.77413 12.4999 10.1207 12.4999V12.4999ZM3.37913 1.25082C3.55996 1.25082 3.57829 1.25082 3.71246 1.63165C4.52828 4.03412 6.35826 7.58908 7.69492 7.58908C8.69907 7.58908 8.69907 6.55993 8.69907 6.17243L8.69824 3.08747C8.64324 2.06664 8.27158 1.55832 8.02741 1.24999L10.9507 1.25332C10.9524 1.26749 10.934 4.66578 10.959 5.48911C10.959 6.65826 11.8874 7.32825 13.3365 5.8616C14.8657 4.13579 15.9232 1.55582 15.9657 1.45082C16.0282 1.30082 16.0823 1.24999 16.279 1.24999H18.3298H18.3381C18.3373 1.25249 18.3373 1.25499 18.3365 1.25749C18.149 2.13248 16.2982 4.92078 15.679 5.7866C15.669 5.79994 15.6598 5.8141 15.6507 5.82827C15.3782 6.27327 15.1565 6.76493 15.6882 7.45658H15.689C15.7373 7.51492 15.8632 7.65158 16.0465 7.84158C16.6165 8.42991 18.5715 10.4416 18.7448 11.2415C18.6298 11.2599 18.5048 11.2465 16.5673 11.2507C16.1548 11.2507 15.8323 10.6341 14.6015 9.3924C13.4949 8.31574 12.7765 7.87575 12.1224 7.87575C10.8524 7.87575 10.9449 8.90657 10.9565 10.1532C10.9607 11.5049 10.9524 11.0774 10.9615 11.1624C10.8874 11.1915 10.6749 11.2499 10.1207 11.2499C4.83328 11.2499 1.38998 2.85747 1.25749 1.25332C1.30332 1.24915 1.93415 1.25165 3.37913 1.25082V1.25082Z" fill="#FFBE2E"/>
</svg>
